<svg width="10" height="20" viewBox="0 0 10 20" fill="none" xmlns="http://www.w3.org/2000/svg">
<path d="M3.35672 11.1121C2.95385 11.321 2.75241 11.5821 2.75241 11.8955C2.75241 12.1342 2.84194 12.3356 3.021 12.4998C3.21497 12.6639 3.46117 12.746 3.7596 12.746C4.0431 12.746 4.2893 12.6863 4.4982 12.5669C4.7071 12.4326 4.93092 12.2909 5.16966 12.1417C5.42332 11.9775 5.67698 11.8432 5.93064 11.7388C6.19922 11.6343 6.51257 11.5821 6.87068 11.5821C7.69135 11.5821 8.34789 11.8507 8.84029 12.3879C9.34761 12.925 9.60127 13.6636 9.60127 14.6037C9.60127 15.2751 9.47444 15.8944 9.22078 16.4614C8.96712 17.0284 8.60901 17.5208 8.14645 17.9386C7.69881 18.3564 7.16165 18.6772 6.53495 18.901C5.90826 19.1397 5.21442 19.2591 4.45344 19.2591C3.40895 19.2591 2.6032 19.0726 2.03619 18.6995C1.46919 18.3414 1.18568 17.864 1.18568 17.2671C1.18568 16.5061 1.62586 15.9839 2.50621 15.7004C1.92428 15.4766 1.49157 15.1856 1.20806 14.8275C0.92456 14.4694 0.782808 14.0143 0.782808 13.4622C0.782808 12.4326 1.49157 11.5448 2.90909 10.7987C2.38684 10.2616 2.00635 9.70203 1.76761 9.1201C1.52887 8.53817 1.4095 7.8891 1.4095 7.17288C1.4095 5.9941 1.70793 5.03168 2.30478 4.28561C2.90163 3.52463 3.69991 3.09191 4.69964 2.98746C4.55043 2.70396 4.47582 2.39807 4.47582 2.06981C4.47582 1.80122 4.52804 1.54756 4.63249 1.30882C4.73694 1.07008 4.88615 0.861184 5.08013 0.68213C5.27411 0.503074 5.49792 0.361322 5.75159 0.256873C6.00525 0.152424 6.28129 0.1002 6.57972 0.1002C7.08704 0.1002 7.49737 0.264334 7.81072 0.592602C8.12407 0.920869 8.28074 1.31628 8.28074 1.77884C8.28074 2.16679 8.17629 2.4876 7.96739 2.74126C7.77342 2.98 7.51976 3.09937 7.20641 3.09937C6.78861 3.09937 6.44542 2.86063 6.17684 2.38315L6.31113 2.42792C6.46035 2.36823 6.56479 2.30109 6.62448 2.22648C6.68417 2.15187 6.71401 2.0325 6.71401 1.86837C6.71401 1.70424 6.65432 1.56248 6.53495 1.44311C6.41558 1.30882 6.25145 1.24168 6.04255 1.24168C5.83365 1.24168 5.6546 1.3312 5.50539 1.51026C5.35617 1.67439 5.28157 1.89075 5.28157 2.15933C5.28157 2.44284 5.36363 2.72634 5.52777 3.00985C6.42304 3.24858 7.11688 3.74099 7.60928 4.48705C8.10168 5.21819 8.34789 6.12093 8.34789 7.19526C8.34789 7.85179 8.25836 8.44864 8.0793 8.98581C7.91517 9.52297 7.67643 9.98553 7.36308 10.3735C7.04974 10.7465 6.6767 11.0375 6.24399 11.2464C5.82619 11.4404 5.37109 11.5373 4.87869 11.5373C4.38629 11.5373 3.87897 11.3956 3.35672 11.1121ZM6.04255 6.41189C6.04255 5.5017 5.9381 4.81532 5.7292 4.35276C5.53523 3.8902 5.25918 3.65892 4.90107 3.65892C4.58773 3.65892 4.31915 3.89766 4.09533 4.37514C3.88643 4.8377 3.78198 5.51662 3.78198 6.41189C3.78198 7.2624 3.88643 7.90402 4.09533 8.33673C4.30422 8.76945 4.58773 8.98581 4.94584 8.98581C5.27411 8.98581 5.53523 8.76945 5.7292 8.33673C5.9381 7.90402 6.04255 7.2624 6.04255 6.41189ZM4.38629 17.2223C4.29676 16.8792 4.11025 16.7076 3.82674 16.7076C3.64769 16.7076 3.49102 16.7672 3.35672 16.8866C3.23735 17.0209 3.17767 17.1776 3.17767 17.3566C3.17767 17.6252 3.29704 17.8341 3.53578 17.9833C3.77452 18.1475 4.11771 18.2295 4.56535 18.2295C5.31141 18.2295 5.91572 18.043 6.37828 17.67C6.84084 17.3119 7.07212 16.8792 7.07212 16.3718C7.07212 15.9839 6.96767 15.6855 6.75877 15.4766C6.5648 15.2677 6.29621 15.1632 5.95302 15.1632C5.56507 15.1632 5.16966 15.2453 4.76678 15.4094C4.37883 15.5735 3.93119 15.678 3.42387 15.7228C4.12517 15.857 4.47582 16.2152 4.47582 16.7971C4.47582 16.9612 4.44598 17.103 4.38629 17.2223Z" fill="#D71A1A"/>
</svg>
