<svg width="8" height="18" viewBox="0 0 8 18" fill="none" xmlns="http://www.w3.org/2000/svg">
<path d="M7.35431 5.10065V7.75267H5.08115V12.8199C5.08115 13.846 5.10088 14.4459 5.14035 14.6195C5.1877 14.7853 5.28636 14.9234 5.43633 15.0339C5.59419 15.1444 5.78362 15.1996 6.00462 15.1996C6.31244 15.1996 6.75839 15.0931 7.34247 14.88L7.62662 17.461C6.85311 17.7925 5.977 17.9582 4.99827 17.9582C4.39841 17.9582 3.85775 17.8596 3.37628 17.6622C2.89481 17.457 2.53963 17.1966 2.31073 16.8808C2.08973 16.5572 1.93582 16.1231 1.849 15.5785C1.77796 15.1917 1.74244 14.4104 1.74244 13.2343V7.75267H0.215165V5.10065H1.74244V2.60255L5.08115 0.660888V5.10065H7.35431Z" fill="#F456C8"/>
</svg>
